<?xml version="1.0" encoding="UTF-8" standalone="no"?>
<svg
   width="482.20386"
   zoomAndPan="magnify"
   viewBox="0 0 361.65289 336.8908"
   height="449.18774"
   preserveAspectRatio="xMidYMid"
   version="1.0"
   id="svg2"
   sodipodi:docname="svg_boi.svg"
   inkscape:export-filename="svg_boi4.svg"
   inkscape:export-xdpi="96"
   inkscape:export-ydpi="96"
   xmlns:inkscape="http://www.inkscape.org/namespaces/inkscape"
   xmlns:sodipodi="http://sodipodi.sourceforge.net/DTD/sodipodi-0.dtd"
   xmlns="http://www.w3.org/2000/svg"
   xmlns:svg="http://www.w3.org/2000/svg">
  <defs
     id="defs2" />
  <sodipodi:namedview
     id="namedview2"
     pagecolor="#ffffff"
     bordercolor="#000000"
     borderopacity="0.25"
     inkscape:showpageshadow="2"
     inkscape:pageopacity="0.0"
     inkscape:pagecheckerboard="0"
     inkscape:deskcolor="#d1d1d1" />
  <g
     id="g3"
     style="fill:#ffffff;fill-opacity:1;stroke:none;stroke-opacity:1"
     transform="translate(-7.0637821,-23.06622)">
    <path
       fill="#000000"
       d="m 367.46875,120.42578 c -1.42969,-2.17969 -3.85547,-3.48828 -6.46484,-3.55078 l -47.8086,-0.375 c 21.51172,-18.988281 27.78906,-60.210938 24.74219,-86.484375 -0.37109,-2.925781 -2.35938,-5.480469 -5.15625,-6.476563 -2.80078,-0.996093 -5.90625,-0.3125 -8.08203,1.804688 -2.92188,2.867188 -6.03125,6.042969 -9.26563,9.339844 C 295.66797,54.796875 271.10937,79.828125 245,79.828125 L 192.90625,51.933594 c -0.125,-0.0625 -0.25,-0.1875 -0.375,-0.25 -0.86719,-0.5 -1.80078,-0.871094 -2.73438,-0.996094 -1.86328,-0.3125 -3.73046,0.0625 -5.40625,0.996094 -0.125,0.0625 -0.25,0.125 -0.375,0.25 L 132.10937,79.703125 C 106.37109,79.019531 82.1875,54.421875 62.667969,34.558594 59.433594,31.261719 56.328125,28.148438 53.40625,25.28125 51.292969,23.226562 48.121094,22.542969 45.324219,23.476562 42.527344,24.472656 40.535156,26.964844 40.164062,29.953125 37.054688,56.167969 43.394531,97.386719 64.84375,116.375 l -50.042969,0.375 c -2.613281,0 -5.035156,1.37109 -6.464843,3.55078 -1.429688,2.17969 -1.679688,4.91797 -0.621094,7.34766 10.566406,24.84375 25.671875,48.5039 56.570312,48.5039 7.148438,0 15.167969,-1.30859 24.121094,-4.10937 l 38.04297,124.96484 c 4.41406,14.50781 17.53125,24.28516 32.69922,24.28516 h 58.625 c 15.16797,0 28.28515,-9.77735 32.69922,-24.28516 l 9.75781,-32.1289 25.11719,-82.625 c 1.73828,-3.11329 3.23046,-6.28907 4.53906,-9.40235 7.95703,2.24219 15.10547,3.30078 21.50781,3.30078 30.89453,0 46.00391,-23.66015 56.57031,-48.5039 1.1836,-2.24219 0.9336,-5.04688 -0.49609,-7.22266 z M 247.61328,253.17187 208.69531,241.71484 c -1.55469,-0.43359 -3.10937,-0.87109 -4.72265,-1.17968 l 10.5664,-9.83985 c 8.33203,-7.66015 15.10547,-13.88672 18.77344,-23.47265 11.8125,1.86718 21.32422,0.55859 29.09375,-2.74219 z m -133.34765,-49.75 c 8.08203,4.04688 18.33984,5.85547 31.33203,3.80079 3.73046,9.58593 10.50781,15.8125 18.83593,23.47265 l 10.94141,10.14844 c -0.74609,0.1875 -1.55469,0.3125 -2.30078,0.5625 l -43.57813,12.01562 z M 89.089844,120.60938 137.64062,94.582031 180.78516,71.484375 V 224.59375 l -5.78125,-5.41797 c -9.26563,-8.53125 -14.23829,-13.13672 -16.03907,-21.73047 -0.0625,-0.43359 -0.125,-0.80859 -0.1875,-1.24609 0,-0.125 -0.0625,-0.1836 -0.0625,-0.3086 -0.3125,-1.87109 -0.43359,-3.92578 -0.49609,-6.22656 v -12.64062 c -0.25,-12.51563 -10.25781,-22.35547 -22.81641,-22.41407 l -35.93359,-0.125 z m 198.371096,-0.3086 c -0.3125,0.4961 -0.5586,1.0586 -0.6836,1.61719 l -9.88672,32.5664 -33.19531,0.125 c -12.49609,0.0586 -22.5039,9.89844 -22.8164,22.60157 v 12.32812 c -0.0586,2.42578 -0.2461,4.54297 -0.5586,6.53516 0,0.0625 -0.0625,0.125 -0.0625,0.1875 -0.0625,0.375 -0.18359,0.75 -0.18359,1.12109 -1.80469,8.71875 -6.77735,13.32422 -16.10156,21.85547 l -7.58594,7.03516 V 71.609375 Z m -144.84766,71.54297 c -17.96484,2.67578 -29.40234,-3.80078 -37.79687,-21.73047 l 30.52343,0.12109 c 3.98047,0 7.14844,3.11329 7.21094,6.97657 v 12.63672 c 0,0.6875 0.0625,1.37109 0.0625,1.99609 z m 128.49609,-15.87891 c -8.08203,13.51172 -18.83593,18.30469 -34.75,15.9375 0.0625,-0.68359 0.0625,-1.42968 0.0625,-2.17578 v -12.32812 c 0.0625,-3.98828 3.23438,-7.10157 7.21094,-7.10157 l 29.15625,-0.0625 z M 322.95703,49.378906 c -1.17969,24.53125 -10.07031,50.1875 -24.36719,58.593754 L 267.25781,91.222656 c 21.57031,-8.15625 40.46875,-26.402344 55.69922,-41.84375 z m -267.749999,0 c 15.230469,15.441406 34.191407,33.6875 55.703129,41.84375 L 79.578125,107.97266 C 65.277344,99.503906 56.390625,73.910156 55.207031,49.378906 Z m -28.035156,83.062504 48.800781,-0.375 7.707032,25.28125 C 53.964844,166.625 39.105469,155.72656 27.171875,132.44141 Z M 217.83594,305.78516 h -58.625 c -8.08203,0 -15.04297,-5.10547 -17.59375,-12.69922 h 7.27343 c 5.16016,0 9.32813,-4.23438 9.32813,-9.33985 0,-5.10547 -4.23047,-9.33984 -9.32813,-9.33984 h -12.18359 c -0.30859,0 -0.55859,0.0625 -0.80859,0.1875 l -1.86328,-6.16406 43.14453,-11.89453 c 8.88672,-2.42969 18.21093,-2.36719 27.10156,0.25 l 38.79297,11.39453 -1.92578,6.28906 c 0,0 -0.0625,0 -0.0625,0 h -12.1875 c -5.15625,0 -9.32422,4.17187 -9.32422,9.33984 0,5.16797 4.22656,9.33985 9.32422,9.33985 h 6.52734 c -2.54687,7.53125 -9.50781,12.63672 -17.58984,12.63672 z m 75.15625,-148.1875 7.77343,-25.53125 47.99219,0.375 c -11.8125,23.03906 -26.54687,33.99609 -55.76562,25.15625 z m 0,0"
       fill-opacity="1"
       fill-rule="nonzero"
       id="path1"
       style="fill:#ffffff;fill-opacity:1;stroke:none;stroke-opacity:1" />
    <path
       fill="#000000"
       d="m 194.70703,359.95703 h -13.48828 c -71.42969,0 -129.554688,-58.21875 -129.554688,-129.75781 v -53.98438 c 0,-4.60937 3.730469,-8.34375 8.332032,-8.34375 4.597656,0 8.328125,3.73438 8.328125,8.34375 v 53.98438 c 0,62.32422 50.605471,113.00781 112.832031,113.00781 h 13.49219 c 62.22656,0 112.82812,-50.68359 112.82812,-113.00781 v -50.8711 c 0,-4.60937 3.73047,-8.34375 8.33203,-8.34375 4.60157,0 8.32813,3.73438 8.32813,8.34375 v 50.8711 c 0.125,71.53906 -58,129.75781 -129.42969,129.75781 z m 0,0"
       fill-opacity="1"
       fill-rule="nonzero"
       id="path2"
       style="fill:#ffffff;fill-opacity:1;stroke:none;stroke-opacity:1" />
  </g>
</svg>
